<svg width="31" height="31" viewBox="0 0 31 31" fill="none" xmlns="http://www.w3.org/2000/svg">
<g id="SVG">
<path id="Vector" fill-rule="evenodd" clip-rule="evenodd" d="M4.75344 5.43115H1.772V3.55615H6.29058L7.29057 8.55615H29.1454L26.3045 24.1812H8.50344L4.75344 5.43115ZM7.66557 10.4311L10.0406 22.3062H24.7396L26.8986 10.4311H7.66557Z" fill="white"/>
<path id="Vector_2" d="M11.772 26.9936C11.772 27.684 11.2124 28.2436 10.522 28.2436C9.83165 28.2436 9.272 27.684 9.272 26.9936C9.272 26.3032 9.83165 25.7437 10.522 25.7437C11.2124 25.7437 11.772 26.3032 11.772 26.9936Z" fill="white"/>
<path id="Vector_3" d="M24.272 28.2436C24.9623 28.2436 25.522 27.684 25.522 26.9936C25.522 26.3032 24.9623 25.7437 24.272 25.7437C23.5817 25.7437 23.022 26.3032 23.022 26.9936C23.022 27.684 23.5817 28.2436 24.272 28.2436Z" fill="white"/>
</g>
</svg>
